<svg viewBox="0 0 201 44" xmlns="http://www.w3.org/2000/svg" xmlns:xlink="http://www.w3.org/1999/xlink" width="201.000000" height="44.000000" fill="none" customFrame="#000000">
	<g id="Полное лого">
		<g id="Название svg">
			<path id="Форма 2" d="M140.689 27.6378C140.689 31.6038 140.689 35.4603 140.689 39.3841C138.354 39.3841 136.102 39.3841 133.744 39.3841C133.744 34.8713 133.744 30.3357 133.744 25.7176C132.445 25.7176 131.251 25.7176 129.993 25.7176C129.993 30.2644 129.993 34.775 129.993 39.3686C127.659 39.3686 125.384 39.3686 123.059 39.3686C123.059 27.8934 123.059 16.431 123.059 4.90861C125.341 4.90861 127.588 4.90861 129.947 4.90861C129.947 9.78876 129.947 14.6527 129.947 19.5823C131.222 19.5823 132.387 19.5823 133.673 19.5823C133.673 14.6836 133.673 9.81994 133.673 4.90344C136.046 4.90344 138.3 4.90344 140.689 4.90344C140.689 12.463 140.689 19.9957 140.689 27.6378Z" fill="rgb(252,253,254)" fill-rule="nonzero" />
			<path id="Форма 3" d="M90.8348 39.4519C89.8309 39.3972 88.9247 39.4077 88.0395 39.2751C85.6762 38.9213 84.6649 37.8303 84.3825 35.4178C84.3318 34.985 84.3319 34.5443 84.3317 34.1073C84.3286 24.628 84.3289 15.1488 84.3284 5.66956C84.3284 5.45282 84.3284 5.23608 84.3284 4.93429C86.6123 4.93429 88.8607 4.93429 91.2788 4.93429C91.2788 5.25947 91.2788 5.64102 91.2788 6.02256C91.2788 14.6268 91.2786 23.231 91.2792 31.8353C91.2793 33.356 91.281 33.3676 92.7528 33.3576C95.3292 33.3402 94.983 33.6368 94.9869 31.0859C94.9999 22.7734 94.992 14.4608 94.9921 6.14823C94.9921 5.75594 94.9921 5.36364 94.9921 4.91071C97.3506 4.91071 99.6043 4.91071 102.002 4.91071C102.002 5.30805 102.002 5.69611 102.002 6.08417C102.002 15.2353 102.012 24.3864 101.987 33.5375C101.984 34.5474 101.857 35.575 101.642 36.562C101.303 38.1202 100.234 39.0824 98.7025 39.1932C96.1228 39.3799 93.5296 39.3758 90.8348 39.4519Z" fill="rgb(252,253,254)" fill-rule="nonzero" />
			<path id="Форма 4" d="M66.1449 10.6133C65.9082 6.745 67.1319 4.61932 71.7647 4.82661C74.528 4.95026 77.3011 4.84929 80.1643 4.84929C80.5565 6.98224 80.9401 9.06793 81.3448 11.2685C78.9156 11.2685 76.5827 11.2642 74.2498 11.2701C72.8857 11.2736 72.7684 11.3928 72.7635 12.7554C72.7577 14.3958 72.7581 16.0361 72.7635 17.6764C72.7682 19.1294 72.9197 19.2767 74.397 19.2866C75.729 19.2956 77.0623 19.2639 78.3928 19.3113C80.3736 19.3818 81.3729 20.1504 81.4114 22.1256C81.5 26.6755 81.4831 31.2331 81.3147 35.7802C81.2328 37.9892 80.0525 39.1603 77.8788 39.2615C74.5489 39.4166 71.2068 39.3023 67.7964 39.3023C67.4161 37.2972 67.0251 35.2364 66.5998 32.9947C67.0919 32.9947 67.5012 32.9947 67.9105 32.9946C69.8187 32.9942 71.7269 32.9911 73.635 32.9947C74.2827 32.9959 74.7692 32.8448 74.7635 32.0371C74.7495 30.0324 74.7569 28.0275 74.7549 26.0227C74.7541 25.2385 74.3653 24.9448 73.5976 24.9676C72.2666 25.0071 70.9332 24.999 69.6016 24.9727C67.3349 24.9278 66.2062 23.8445 66.1726 21.5436C66.12 17.9356 66.1499 14.3264 66.1449 10.6133Z" fill="rgb(253,254,254)" fill-rule="nonzero" />
			<path id="Форма 5" d="M111.449 16.9075C111.45 19.2873 111.45 19.2856 113.724 19.2881C114.84 19.2893 115.957 19.2666 117.072 19.3102C119.083 19.3888 119.974 20.1975 120.132 22.2276C120.242 23.6409 120.201 25.0684 120.185 26.4891C120.151 29.5839 120.202 32.6858 120.003 35.7706C119.859 38.0033 118.736 39.1612 116.572 39.2611C113.242 39.4147 109.901 39.3015 106.484 39.3015C106.103 37.3014 105.71 35.241 105.296 33.0669C105.694 33.0401 106.031 32.9988 106.369 32.9977C108.349 32.9911 110.329 32.9864 112.309 32.9972C113.032 33.0012 113.467 32.7781 113.455 31.9387C113.428 30.0074 113.436 28.0753 113.45 26.1437C113.456 25.2527 113.052 24.9307 112.184 24.9649C110.89 25.0159 109.593 24.9975 108.297 24.973C106.024 24.9301 104.88 23.8472 104.857 21.5553C104.813 17.3281 104.81 13.0995 104.868 8.87262C104.9 6.56098 106.319 4.96643 108.5 4.90218C111.914 4.80165 115.332 4.87554 118.852 4.87554C119.238 6.97747 119.621 9.06333 120.026 11.2684C117.634 11.2684 115.338 11.2659 113.042 11.2693C111.53 11.2714 111.454 11.3495 111.45 12.8635C111.447 14.1756 111.449 15.4877 111.449 16.9075Z" fill="rgb(253,254,254)" fill-rule="nonzero" />
			<path id="Форма 6" d="M187.248 35.0755C187.725 30.2216 185.979 25.8645 184.901 21.3991C183.58 15.9258 182.151 10.4791 180.745 4.93038C183.111 4.93038 185.42 4.93038 187.8 4.93038C188.772 10.1015 189.744 15.2759 190.716 20.4503C190.799 20.4634 190.881 20.4764 190.963 20.4895C191.955 15.3173 192.946 10.1451 193.949 4.91254C196.278 4.91254 198.603 4.91254 201 4.91254C199.823 9.57156 198.661 14.1828 197.493 18.7924C196.546 22.5261 195.583 26.2554 194.653 29.9934C194.524 30.5143 194.507 31.0734 194.503 31.6153C194.489 34.1931 194.497 36.7712 194.497 39.3997C192.06 39.3997 189.731 39.3997 187.248 39.3997C187.248 37.9996 187.248 36.5923 187.248 35.0755Z" fill="rgb(253,253,254)" fill-rule="nonzero" />
			<path id="Форма 8" d="M165.82 24.5439C165.905 25.2339 165.725 25.4859 165.076 25.4666C163.496 25.4197 161.914 25.4513 160.227 25.4513C160.227 30.1002 160.227 34.7076 160.227 39.3831C157.838 39.3831 155.554 39.3831 153.205 39.3831C153.205 27.9117 153.205 16.4455 153.205 4.91394C157.616 4.91394 161.991 4.91394 166.449 4.91394C166.829 6.97682 167.209 9.04296 167.609 11.2211C165.139 11.2211 162.744 11.2211 160.267 11.2211C160.267 13.9959 160.267 16.6724 160.267 19.4558C162.045 19.4558 163.864 19.4558 165.82 19.4558C165.82 21.1846 165.82 22.8112 165.82 24.5439Z" fill="rgb(252,253,254)" fill-rule="nonzero" />
			<path id="Форма 9" d="M169.978 4.87937C172.269 4.85626 174.46 4.85626 176.765 4.85626C176.765 14.2452 176.765 23.5563 176.765 32.9648C179.059 32.9648 181.239 32.9648 183.624 32.9648C183.23 35.1784 182.858 37.2628 182.479 39.3943C178.228 39.3943 174.037 39.3943 169.776 39.3943C169.757 39.0582 169.724 38.7418 169.723 38.4254C169.721 27.5992 169.72 16.773 169.728 5.9468C169.728 5.59865 169.825 5.25058 169.978 4.87937Z" fill="rgb(251,253,253)" fill-rule="nonzero" />
			<path id="Форма 10" d="M143.514 19.5437C143.515 14.6284 143.515 9.82242 143.515 4.93347C145.76 4.93347 147.965 4.93347 150.241 4.93347C150.241 16.3828 150.241 27.8396 150.241 39.3736C148.066 39.3736 145.858 39.3736 143.514 39.3736C143.514 32.8064 143.514 26.2297 143.514 19.5437Z" fill="rgb(255,255,255)" fill-rule="nonzero" />
		</g>
		<g id="Рыба svg">
			<path id="Форма 7" d="M9.77997 19.9336C6.49475 16.6111 3.26361 13.3435 0 10.043C0.424159 9.68304 0.796816 9.36683 1.17656 9.04461C4.97599 12.9065 8.8988 16.8938 12.8667 20.9269C14.6019 19.1769 16.1961 17.6041 17.7359 15.9784C17.9648 15.7366 18.0114 15.2469 18.0161 14.8702C18.0418 12.7963 18.0284 10.7218 18.0284 8.50445C19.4829 8.50445 20.8854 8.36181 22.248 8.53729C24.385 8.81253 25.8791 8.01744 27.2827 6.41965C29.2872 4.13802 31.5152 2.05777 33.541 0C40.8579 7.40825 48.1238 14.7648 55.2858 22.0161C48.1955 29.1946 40.9071 36.5738 33.5722 44C31.1577 41.5609 28.5699 38.9859 26.0347 36.359C25.3822 35.6829 24.7247 35.3684 23.7768 35.4054C21.9108 35.4784 20.04 35.427 18.0284 35.427C18.0284 33.3937 17.9955 31.4038 18.0446 29.416C18.0642 28.6254 17.8524 28.0504 17.2785 27.4965C15.8512 26.119 14.4877 24.6736 13.0848 23.2413C9.10803 27.2756 5.22227 31.2176 1.27966 35.2172C0.905846 34.6947 0.599006 34.2659 0.272704 33.8099C3.9866 30.052 7.89382 26.0986 11.9311 22.0135C11.1647 21.2734 10.4994 20.6309 9.77997 19.9336ZM26.9904 34.9943C29.225 37.2575 31.4597 39.5207 33.5676 41.6556C39.78 35.366 45.9268 29.1427 52.1275 22.8649C50.7531 22.8649 49.343 22.8649 47.9379 22.8649C47.9379 22.2288 47.9379 21.7328 47.9379 21.1152C49.3992 21.1152 50.8105 21.1152 52.1059 21.1152C45.9491 14.8822 39.7999 8.65699 33.7926 2.57531C27.3891 9.0588 20.9083 15.6207 14.3787 22.2319C18.4839 26.3861 22.6831 30.6355 26.9904 34.9943ZM20.5478 30.8146C20.2836 30.5684 20.0193 30.3222 19.6697 29.9964C19.6697 31.3512 19.6697 32.4987 19.6697 33.667C20.8753 33.667 22.0236 33.667 23.4639 33.667C22.3983 32.6272 21.5254 31.7753 20.5478 30.8146ZM21.372 12.3636C22.0353 11.735 22.6987 11.1064 23.5647 10.2858C22.0211 10.2858 20.8613 10.2858 19.6907 10.2858C19.6907 11.5186 19.6907 12.6847 19.6907 13.8507C19.7869 13.9222 19.8832 13.9938 19.9795 14.0653C20.4075 13.5346 20.8356 13.004 21.372 12.3636Z" fill="rgb(242,246,249)" fill-rule="nonzero" />
			<path id="Форма 19" d="M26.9364 34.9396C22.6831 30.6355 18.4839 26.3861 14.3787 22.2319C20.9083 15.6207 27.3891 9.05882 33.7926 2.57532C39.7999 8.657 45.9491 14.8822 52.1059 21.1152C50.8105 21.1152 49.3991 21.1152 47.9379 21.1152C47.9379 21.7328 47.9379 22.2288 47.9379 22.865C49.3429 22.865 50.753 22.865 52.1275 22.865C45.9268 29.1428 39.78 35.366 33.5676 41.6556C31.4597 39.5207 29.225 37.2575 26.9364 34.9396ZM35.1695 23.4908C35.7068 23.0701 36.2442 22.6494 36.6867 22.3029C34.8897 20.4823 33.3468 18.9193 31.7542 17.3059C31.4323 17.6131 31.0501 17.9778 30.4301 18.5695C31.7389 19.7688 32.9523 20.8807 34.2754 22.0931C33.0174 23.2869 31.8418 24.4026 30.7116 25.475C31.1652 25.9527 31.5243 26.3307 31.9979 26.8293C33.0275 25.744 34.0445 24.6719 35.1695 23.4908ZM27.3992 19.2464C28.3036 20.121 29.208 20.9956 30.194 21.9491C28.8846 23.205 27.6929 24.3481 26.5807 25.4148C27.0147 25.9711 27.3196 26.3619 27.5153 26.6128C29.1677 24.9438 30.7259 23.3698 32.094 21.988C30.6453 20.5159 29.1115 18.9574 27.5203 17.3406C27.3481 17.5359 27.0824 17.832 26.8236 18.1341C26.7542 18.2151 26.7056 18.3144 26.6294 18.4334C26.849 18.667 27.0686 18.9005 27.3992 19.2464ZM43.5989 17.1351C42.8699 16.1125 42.0973 15.8346 41.2715 16.3418C40.5005 16.8153 40.2527 17.5255 40.5393 18.388C40.8118 19.2081 41.6794 19.637 42.5289 19.414C43.4041 19.1843 43.8062 18.4298 43.5989 17.1351Z" fill="rgb(255,255,255)" fill-opacity="0" fill-rule="nonzero" />
			<path id="Форма 20" d="M20.6001 30.869C21.5254 31.7753 22.3984 32.6272 23.4639 33.667C22.0237 33.667 20.8753 33.667 19.6697 33.667C19.6697 32.4987 19.6697 31.3512 19.6697 29.9964C20.0194 30.3222 20.2836 30.5684 20.6001 30.869Z" fill="rgb(255,255,255)" fill-opacity="0" fill-rule="nonzero" />
			<path id="Форма 21" d="M21.3178 12.4184C20.8356 13.004 20.4075 13.5346 19.9794 14.0653C19.8832 13.9937 19.7869 13.9222 19.6907 13.8507C19.6907 12.6846 19.6907 11.5186 19.6907 10.2858C20.8613 10.2858 22.0211 10.2858 23.5647 10.2858C22.6987 11.1063 22.0353 11.735 21.3178 12.4184Z" fill="rgb(255,255,255)" fill-opacity="0" fill-rule="nonzero" />
			<path id="Форма 24" d="M35.1156 23.5453C34.0446 24.6719 33.0275 25.7439 31.9979 26.8293C31.5243 26.3307 31.1653 25.9526 30.7117 25.475C31.8418 24.4025 33.0174 23.2869 34.2755 22.0931C32.9523 20.8806 31.7389 19.7688 30.4301 18.5695C31.0501 17.9778 31.4323 17.613 31.7542 17.3058C33.3468 18.9192 34.8897 20.4823 36.6868 22.3029C36.2442 22.6494 35.7069 23.0701 35.1156 23.5453Z" fill="rgb(238,243,248)" fill-rule="nonzero" />
			<path id="Форма 25" d="M27.3438 19.1902C27.0687 18.9005 26.849 18.6669 26.6294 18.4334C26.7056 18.3144 26.7542 18.2151 26.8236 18.134C27.0825 17.8319 27.3481 17.5358 27.5203 17.3406C29.1115 18.9574 30.6453 20.5159 32.094 21.9879C30.7259 23.3698 29.1677 24.9437 27.5153 26.6127C27.3196 26.3619 27.0148 25.9711 26.5807 25.4148C27.6929 24.348 28.8846 23.205 30.194 21.949C29.208 20.9956 28.3036 20.121 27.3438 19.1902Z" fill="rgb(238,243,248)" fill-rule="nonzero" />
			<path id="Форма 26" d="M43.6293 17.2135C43.8062 18.4297 43.4041 19.1843 42.5289 19.414C41.6794 19.637 40.8118 19.2081 40.5393 18.3879C40.2528 17.5255 40.5005 16.8153 41.2716 16.3417C42.0973 15.8346 42.87 16.1125 43.6293 17.2135Z" fill="rgb(246,249,251)" fill-rule="nonzero" />
		</g>
	</g>
</svg>
